<?xml version="1.0"?>
<svg xmlns="http://www.w3.org/2000/svg" xmlns:xlink="http://www.w3.org/1999/xlink" version="1.1" id="Capa_1" x="0px" y="0px" viewBox="0 0 512 512" style="enable-background:new 0 0 512 512;" xml:space="preserve" width="512px" height="512px"><g><path id="_x3C_Group_x3E__13_" d="M510.416,204.292l-51.708-103.417C451.036,85.532,435.613,76,418.459,76H45  C20.187,76,0,96.187,0,121v240c0,24.813,20.187,45,45,45h17.58c6.192,17.458,22.865,30,42.42,30s36.228-12.542,42.42-30h217.16  c6.192,17.458,22.865,30,42.42,30s36.228-12.542,42.42-30H467c24.813,0,45-20.187,45-45V211  C512,208.671,511.458,206.375,510.416,204.292z M180,226v-60h61v60H180z M90,226v-60h60v60H90z M271,166h61v60h-61V166z M362,166  h95.73L482,214.541V256h-71.459L362,231.729V166z M105,406c-8.271,0-15-6.729-15-15s6.729-15,15-15s15,6.729,15,15  S113.271,406,105,406z M407,406c-8.271,0-15-6.729-15-15s6.729-15,15-15s15,6.729,15,15S415.271,406,407,406z M467,376h-17.58  c-6.192-17.458-22.865-30-42.42-30s-36.228,12.542-42.42,30H147.42c-6.192-17.458-22.865-30-42.42-30s-36.228,12.542-42.42,30H45  c-8.271,0-15-6.729-15-15v-45h287c8.284,0,15-6.716,15-15s-6.716-15-15-15H30V121c0-8.271,6.729-15,15-15h373.459  c5.719,0,10.859,3.177,13.417,8.292L442.73,136H75c-8.284,0-15,6.716-15,15v90c0,8.284,6.716,15,15,15h268.459l56.833,28.417  c2.083,1.042,4.379,1.583,6.708,1.583h75v30h-15c-8.284,0-15,6.716-15,15s6.716,15,15,15h15v15C482,369.271,475.271,376,467,376z" data-original="#000000" className="active-path" data-old_color="#4a4a4a" fill="#4a4a4a"/></g> </svg>
