<svg id="Layer_1" data-name="Layer 1" xmlns="http://www.w3.org/2000/svg" viewBox="0 0 428.57 428.57"><defs><style>.cls-1{fill:none;}.cls-2{fill:#f80707;}.cls-3{fill:#f5f7f6;}</style></defs><title>eatsLogo</title><path class="cls-1" d="M-175.3,487q0-212.62-.06-425.23c0-2.67.6-3.28,3.27-3.28q211,.12,422,0c2.67,0,3.28.61,3.28,3.28q-.12,211,0,422c0,2.67-.6,3.27-3.28,3.27Q37.32,486.92-175.3,487ZM-32.7,374.27c.52,2.5-1,2-2.6,2a5.22,5.22,0,0,0-5.35,5.41,5.49,5.49,0,0,0,5.2,5.31,5.33,5.33,0,0,0,5.54-5.22c.08-2.49,0-5,0-7.46,9.81.6,16.63-3.62,18.45-11.43,2-8.63-.82-15-8.26-18.3,3.37-2.22,5.69-5.07,6.33-9.08,1.58-9.95-3.88-17.24-14.24-18.15-6.36-.57-12.81-.22-19.21-.37-1.68,0-1.92.73-1.91,2.15q0,26.55,0,53.08c0,1.64.37,2.35,2.16,2.29,4.39-.15,8.78-.14,13.17-.19ZM164.89,171.41l.29-1.06c-41.24-46.38-92.58-67-154.27-56.44-83.38,14.26-140.29,89.15-133.63,173.42C-115.35,380.46-29.43,448.64,63,434.71a162.67,162.67,0,0,0,137.2-184.25c-.81-5.73-.82-5.74-5.69-2.61-1.82,1.17-3.71,1.84-3.24,5,2.79,19.13,2.23,38.25-2.8,56.93-15.84,58.72-52.93,97.8-111.87,112.54-59.82,15-111.62-2.24-153.16-48-20.85-22.94-32.45-50.54-36.61-81.26-.32-2.41,0-3.44,2.75-3.24a55.34,55.34,0,0,0,10,0c6.2-.67,10.38,1.83,13.57,7.05,3,4.94,7.74,7.18,13.58,6.87,16.14-.84,32.27-1.65,48.4-2.56,2.2-.12,5.59.61,5.54-2.83-.05-3.81-3.58-2.63-5.83-2.66q-18.53-.3-37.06-.32c-2.89,0-4.12-1.36-4.22-4.07-.13-3.26,1.25-4.65,4.69-4.72q19.42-.41,38.83-.77c1.51,0,2.91-.17,3.57-1.73a3,3,0,0,0-.29-3.06c-1-1.39-2.49-1.21-3.89-1.26-12.7-.41-25.4-.87-38.1-1.15-3.18-.07-5-1.14-5.14-4.43s1.47-4.55,5.3-4.52q19.06.12,38.13.29c2,0,4.17.13,4.24-2.54s-2-2.81-4-2.94c-15.76-1-31.55-1.82-47.29-3.14-7.68-.64-13.4,1.61-17.5,8.24-2.43,3.92-6.08,5.71-10.89,5.31a67.8,67.8,0,0,0-11.75,0c-3.42.32-3.81-1.09-3.74-4a155.17,155.17,0,0,1,16.84-67.14c28.92-57.27,93.32-91.17,156.55-82.35q54.8,7.64,92.75,47.9c.87.93,1.58,2.06,3.15,2C158.29,171.36,161.59,171.41,164.89,171.41ZM136.17,307.84c-2.26-3-4-5.42-5.95-7.76-1-1.23-1.41-2.15-.34-3.67a23.07,23.07,0,0,0,3.59-10.33c.88-6.37.87-6.23-5.45-6.37-2.53,0-3.19.79-3.28,3.16a11.42,11.42,0,0,1-2.35,7,100.93,100.93,0,0,0-6.28-8c-2.44-2.57-2.79-4.39.61-6.34a11.1,11.1,0,0,0,4.22-4.74c2.54-5.1,2.83-10.29-.2-15.27-2.9-4.79-7.46-6.31-12.85-5.8-9.72.93-15.67,10.86-11,20.5,2.66,5.56,1.73,8.3-2.09,12.58-8.23,9.22-2.92,23.17,9.2,25.59a20.36,20.36,0,0,0,12.53-1.39c2.4-1.07,4.8-3.49,6.84.5.15.28.84.4,1.28.4C128.22,307.85,131.84,307.84,136.17,307.84Zm-88.44,9.32c-5.93,0-5.93,0-7.5,5.54q-6.15,21.74-12.3,43.47c-.74,2.61-2.75,6.31-1.74,7.63,1.49,1.94,5.27.35,8.05.7,2.28.28,3.38-.47,3.84-2.87.59-3.12.79-7.17,2.81-8.92,2.22-1.94,6.38-.21,9.63-.67,3.5-.51,4.61,1,5.34,4.19,1.91,8.35,2.07,8.15,10.6,8.33,3.29.07,3-1,2.32-3.43C64.13,355.07,59.6,339,55.06,322.89,53.44,317.17,53.46,317.16,47.73,317.16Zm56.78,39.46a17.22,17.22,0,0,1-2.49,0c-2.48-.35-3.31.53-3,3.11.56,5.62,3,9.9,8,12.71,4.62,2.64,9.61,3.23,14.81,2.71,7.45-.76,13-5.05,14.52-11.19,1.91-7.83-.74-14.45-7.49-18.73a37.45,37.45,0,0,0-7.69-3.67,23.71,23.71,0,0,1-7.73-4.31c-2.73-2.37-2.84-5.37-1.55-8.45s3.81-4.07,7-3.73c3.72.41,5.6,2.66,6.38,6.18.2.9-.4,2.6,1.11,2.63,3.27.05,7.44,1.46,9.57-.57,1.8-1.71,0-5.61-1.39-8.27a15.34,15.34,0,0,0-8.08-7.19,22.68,22.68,0,0,0-13.64-1c-6.94,1.5-11.8,6.55-12.71,12.83-1.05,7.19,1.53,12.42,8.11,16.37a50.93,50.93,0,0,0,8.7,4,19.24,19.24,0,0,1,6.22,3.39,8.28,8.28,0,0,1,1.88,9.47c-1.45,3.24-4.21,3.92-7.38,3.71-4.4-.29-6.84-2.42-7.35-7.18-.27-2.59-1.29-3.2-3.54-2.88A13.89,13.89,0,0,1,104.51,356.62Zm-113-10.89c0,8.67.08,17.34-.05,26,0,2.17.49,2.84,2.73,2.8,8-.14,15.91,0,23.87,0,5.7,0,5.55,0,5.67-5.87.05-2.5-.85-2.93-3.05-2.87-5.1.14-10.21,0-15.32.09-1.94,0-2.74-.38-2.65-2.52.18-3.91.16-7.84,0-11.75-.08-1.95.61-2.38,2.42-2.33,4.27.12,8.54,0,12.82,0,1,0,2,.17,2.25-1.47,1-6.3.26-7.29-6-7.32-3.67,0-8.59,1.28-10.66-.57-2.38-2.12-.43-7.15-.8-10.89-.23-2.4.43-3.36,3-3.21,4,.23,8.07.06,12.11.06,5.79,0,5.67,0,5.78-5.79,0-2.31-.55-3-2.93-3q-13.17.22-26.36,0c-2.39,0-2.95.7-2.91,3C-8.43,328.63-8.51,337.18-8.51,345.73Zm25.11-42c-2-5.47-1.73-10.82-1.81-16.15s.47-10.46-.29-15.65c-1-6.62-5.65-10.83-12.54-11.57-7.93-.85-15,2.61-17.29,8.5-1.66,4.21-1.22,4.88,3.19,4.95,1.19,0,2.38,0,3.56.08,2,.15,3.66.16,3.9-2.64.14-1.61,1.64-2.54,3.38-2.63a4,4,0,0,1,4.08,2.29c.78,1.52.68,3.21.89,4.86.31,2.48-.72,3.05-3,2.92a25.06,25.06,0,0,0-10.2,1.13c-8.48,3.1-11.14,15.12-4.76,21.56a11.05,11.05,0,0,0,16.53-1.15c.42-.57.49-1.6,1.45-1.62,1.39,1.67-.1,5.05,3.38,5.11C10.15,303.78,13.22,303.74,16.6,303.74ZM63.65,274c1.81,0,3-.1,4.18,0,2.1.22,2.29-.81,2.08-2.55-.81-6.61-7.11-11.15-15.57-11.13-8.2,0-14.4,4.65-15.05,11.23a10.49,10.49,0,0,0,4.21,10,34.51,34.51,0,0,0,7.12,4,57,57,0,0,1,6.32,3.24c2,1.22,3,3.12,2.07,5.47s-2.84,2.66-5,2.55c-2.87-.15-4.75-1.64-5.17-4.47-.25-1.74-1-2.12-2.57-2-1.18.1-2.37,0-3.56,0-4.86,0-5.47.91-3.39,5.51a14.56,14.56,0,0,0,2.56,3.81c4.62,5.09,13.89,6.55,20.82,3.29,4.25-2,7.09-5.1,7.4-10.05a11.09,11.09,0,0,0-6-10.92c-2-1.18-4.26-2.07-6.38-3.12s-4.07-1.94-6-3.1a3.74,3.74,0,0,1-1.7-4.64,4.22,4.22,0,0,1,3.64-3c2-.29,4,.35,4.42,2.16C58.93,274.06,61.2,274.47,63.65,274Zm22.58,76.5c0-7.24.12-14.48-.06-21.72-.06-2.44.74-3,3-2.9,2.72.17,5.46-.05,8.18.08,1.89.09,2.61-.58,2.38-2.45a10.8,10.8,0,0,1,0-2.84c.43-2.79-.61-3.58-3.45-3.53-10.44.18-20.89.16-31.33,0-2.53,0-3.45.66-3.06,3.14a8.65,8.65,0,0,1,0,2.49c-.34,2.37.38,3.47,3,3.2,2.23-.23,4.53.13,6.76-.09,2.61-.26,3.41.52,3.37,3.27-.17,12.34-.07,24.68-.07,37,0,8.52,0,8.41,8.48,8.42,2.52,0,2.86-.93,2.83-3.09C86.16,364.46,86.23,357.46,86.23,350.45ZM20.56,282.17h.2c0,4.15-.3,8.34.07,12.46.59,6.36,4.4,9.74,10.47,9.92,6.5.19,7.67-1.27,6.12-7.59-.2-.81-.13-1.7-1.43-1.47-3.7.67-4.21-1.83-4.24-4.52-.08-6.41.07-12.83-.08-19.24-.05-2.23.67-3.11,2.83-2.72,3.92.72,3-2.08,3.09-4.18.14-2.3.21-4.4-3.15-3.76-2.13.41-3-.4-2.76-2.68.21-1.88,0-3.8.07-5.7.07-1.57-.28-2.24-2.12-2.33-8.8-.43-8.79-.5-9.07,8.2,0,.48,0,.95,0,1.43,0,.72-.52,1.19-1.13,1.05-4.76-1-3.94,2.24-4.1,5-.14,2.36.6,3.31,3,2.92,2-.32,2.39.69,2.33,2.47C20.47,275,20.56,278.61,20.56,282.17ZM6.62,191.24v3.08c0,9.3,0,9.24,9.51,8.86,1.93-.07,2.44-.68,2.36-2.5-.13-2.85,0-5.7,0-8.55,0-.8-.26-1.7.66-2.23,4.77-2.74,12.2,1.48,13.07,7.2.31,2-1.47,4.71.44,5.81,1.6.93,4.16.21,6.3.22a10.57,10.57,0,0,1,1.78,0c2.41.42,3-.88,3.21-3,1.13-9.65-4.56-17.39-14.12-19-4-.7-8.06-.4-12.09-.41-3.54,0-8.24-1.19-10.32.59C5,183.37,7,188.21,6.62,191.24Zm-58.77,25.44c1.45,1.07,2.15,1.51,2.76,2.06a9,9,0,0,1,2.07,9.8c-1.51,3.52-4.46,4.27-7.91,4-3.79-.27-7.06-2.19-7.15-5.67-.14-5.44-3.32-5.12-6.93-4.89a20.11,20.11,0,0,1-3.2,0c-1.79-.19-2.25.64-2.16,2.28.36,6.08,2.66,11,8.11,14.13a24.54,24.54,0,0,0,20.25,2.08c9.37-2.93,13.82-12.41,10.41-21.64-.48-1.31-1-2.26-2.69-2.21C-42.82,216.75-47,216.68-52.15,216.68Zm234.86,0c1.36,1,2,1.43,2.63,1.95a8.76,8.76,0,0,1,2.28,9.75c-1.32,3.42-4.09,4.37-7.44,4.26-4.14-.15-7.38-1.9-7.61-5.55-.34-5.33-3.21-5.6-7.18-5.09a11.73,11.73,0,0,1-2.84,0c-1.91-.23-2.47.53-2.35,2.41.4,6.11,2.78,11,8.23,14.1a25,25,0,0,0,17.9,2.62c10.61-2.1,16-11.44,12.8-21.82-.57-1.83-1.33-2.76-3.44-2.68C191.67,216.8,187.64,216.68,182.71,216.68ZM141,180.7c-5.57,0-11.16.18-16.72-.08-2.94-.14-3.53.87-3.44,3.58.19,5.7.05,5.71,5.82,5.71h1.42c6.58,0,6.58,0,6.58,6.69,0,6.52,0,6.52,6.38,6.52,5.33,0,5.33,0,5.33-5.43,0-7.78,0-7.78,7.67-7.78,6.68,0,6.6,0,6.45-6.84,0-1.88-.57-2.44-2.42-2.41C152.42,180.76,146.73,180.69,141,180.7Zm34.86,22.42.37-.78a9.2,9.2,0,0,1-1.64-1.3c-2.23-2.71-2.15-5.68-.65-8.64s4.1-3.76,7.19-3.4c3.32.38,6,2.28,6.13,5.45.18,4.44,2.71,4,5.61,4,7.2-.09,8.09-1.46,5.12-8.29a15.87,15.87,0,0,0-3.9-5.45c-7.14-6.53-20.72-6.53-27.83,0-4.85,4.47-5.85,10-4.59,16.26.3,1.53.93,2.23,2.59,2.19C168.16,203.06,172,203.12,175.9,203.12Zm-234.79,0,.47-.72a9.27,9.27,0,0,1-1.66-1.2c-2.35-2.63-2.37-5.61-.93-8.61,1.32-2.76,3.69-3.85,6.72-3.66,3.33.2,6.26,1.76,6.52,5,.39,5,3.28,4.72,6.68,4.44a18.41,18.41,0,0,1,3.56,0c1.87.2,2.15-.71,2-2.31-.41-5.41-2.56-9.86-7.15-12.87-6-3.91-12.5-4.27-19.15-2.32-8.81,2.6-13.46,10.82-11.5,19.76.38,1.74,1,2.66,3,2.57C-66.47,203-62.68,203.12-58.89,203.12Zm43.73-22.52c-5.81,0-11.62,0-17.44,0-1.14,0-2.24-.29-2.5,1.58-1,6.85-.4,7.63,6.36,7.63,7.37,0,7.37,0,7.37,7.35,0,6,0,6,5.9,6s5.88,0,5.89-6c0-7.34,0-7.34,7.41-7.34,6.77,0,6.63,0,6.66-6.63,0-2.41-.94-2.66-2.92-2.62C-4,180.67-9.58,180.6-15.16,180.6Zm117.07,60.27h10.33c7,0,6.92,0,6.66-7.09-.06-1.75-.6-2.23-2.26-2.21-4.63.09-9.26,0-13.89,0-5.9,0-5.9,0-5.9-6,0-9.38,0-9.33-9.36-9-1.82.06-2.47.51-2.44,2.42q.17,9.62,0,19.23c0,2,.56,2.69,2.61,2.63C92.41,240.78,97.16,240.87,101.91,240.87Zm-36,0H76.18c7,0,6.89,0,6.72-7-.05-2-.86-2.3-2.54-2.26-4.39.08-8.78,0-13.17,0-6.36,0-6.36,0-6.36-6.24,0-9.31,0-9.25-9.54-8.74-1.77.1-2.15.66-2.13,2.3.09,6.53.1,13.06,0,19.58,0,1.93.64,2.43,2.47,2.38C56.36,240.79,61.11,240.86,65.86,240.86ZM102,180.59c-4.74,0-9.48.13-14.21-.05-2.27-.08-2.84.7-2.74,2.84.17,3.67,0,7.34,0,11,0,9.32,0,9.27,9.53,8.78,1.67-.08,2.32-.51,2.25-2.23-.11-2.84.09-5.69-.07-8.52-.11-2,.46-2.71,2.55-2.64,4.38.16,8.76.05,13.14.05,6.32,0,6.2,0,6.29-6.3,0-2.32-.53-3.1-2.93-3C111.25,180.73,106.62,180.59,102,180.59Zm-35.64,0c-5,0-10,.06-15,0-1.68,0-2.31.45-2.25,2.21.13,3.8,0,7.6,0,11.4,0,9.4,0,9.33,9.34,9,1.95-.07,2.42-.72,2.34-2.5-.12-2.49.2-5-.09-7.48-.36-3,.94-3.56,3.59-3.43,4,.2,8.07,0,12.11,0,6.47,0,6.39,0,6.34-6.62,0-2-.5-2.7-2.57-2.64C75.62,180.7,71,180.6,66.36,180.6ZM47.47,240.86c-3.08-4.26-3.18-8.49-3.13-12.75,0-3.08,0-6.15-1.09-9.09-.48-1.23-.89-2.4-2.63-2.36-4.08.08-8.16,0-12.25,0,3.65,2.41,4.21,6,4.33,9.7.11,3.54-.18,7.09.43,10.61.46,2.65,1.56,4.26,4.71,3.94C40.76,240.63,43.73,240.86,47.47,240.86Zm-29-12.1v-3.2c0-9.08,0-9-9-9-2.53,0-2.93.91-2.85,3.09.14,4,0,8.06,0,12.1,0,9.64,0,9.57,9.56,9.14,2-.09,2.37-.83,2.31-2.56C18.39,235.17,18.46,232,18.46,228.76Zm-39.82.08V232c0,9.27,0,9.21,9.43,8.87,1.9-.07,2.43-.64,2.38-2.46-.12-4.27,0-8.54,0-12.81,0-9.53,0-9.48-9.63-9-1.7.08-2.24.54-2.18,2.24C-21.28,222.19-21.36,225.52-21.36,228.84Zm156.07,0v3.2c0,9.06,0,9,9.1,8.82,2,0,2.72-.47,2.64-2.57-.16-4.26,0-8.52,0-12.78,0-9.19,0-9.11-9.29-8.94-2.16,0-2.52.81-2.44,2.69C134.81,222.5,134.71,225.7,134.71,228.89ZM41,207.63c-11.2,0-21.6.05-32,0-1.88,0-2.39.56-2.44,2.41-.06,2.24,1.2,2.11,2.71,2.1,7.69,0,15.39-.17,23.08.06C35.94,212.26,38.28,210.65,41,207.63Zm59.25,0c-4.39,0-8.77.08-13.16,0-2-.05-2,1-2,2.45s.46,2.08,2,2.07c8.65-.05,17.3-.06,26,0,1.77,0,2.19-.61,2.19-2.27s-.43-2.31-2.2-2.27C108.77,207.7,104.5,207.63,100.23,207.63Zm-36.17,4.45c4.28,0,8.55-.07,12.82,0,1.79,0,2.52-.38,2.49-2.34s-.7-2.17-2.32-2.16q-12.83.09-25.64,0c-1.65,0-2.26.4-2.3,2.18,0,2,.72,2.37,2.49,2.32C55.75,212,59.91,212.08,64.06,212.08Zm-133.33-4.45c3.48,3.57,6.89,4.77,11.11,4.53,5.55-.3,11.13-.07,16.69-.07-2.28-2.16-4.41-4.32-7.35-4.4C-55.4,207.5-62,207.63-69.27,207.63Zm263.49,4.45c-2.8-2.21-5-4.17-7.61-4.31-6.76-.35-13.56-.11-20.34-.11,1.87,2.1,3.64,4.28,6.31,4.36C179.5,212.22,186.42,212.08,194.22,212.08Zm-209.68,0a34.64,34.64,0,0,1,3.53,0c1.82.19,2.46-.45,2.43-2.35,0-1.75-.65-2.23-2.29-2.16-2.46.11-4.94.12-7.41,0-1.68-.08-2.28.47-2.23,2.19,0,1.54.23,2.5,2.09,2.32C-18.06,212-16.76,212.09-15.46,212.09Zm156.05-4.45c-1.07,0-2.14.07-3.2,0-1.79-.14-2.81.13-2.78,2.4s1.26,2.09,2.73,2.07c2.25,0,4.51-.13,6.75,0,1.92.13,2.4-.57,2.4-2.41s-.77-2.22-2.35-2.09C143,207.71,141.77,207.64,140.59,207.64ZM158.2,412.07c1.28,1.68-.09,4,1.74,6.05.46-3.26,1.07-7.33-.71-8.22-3-1.51-2,3.33-4.09,4.45-.13-.29-.24-.57-.39-.84-.9-1.68-.69-5.13-2.76-4.71-2.26.46-1.42,3.7-1.49,5.82,0,.45,0,1,.85,1,1.46-.71.06-2.55,1.17-3.66,1.37,1.76,1.11,4.16,2.7,5.74C157.05,416.21,156.69,413.68,158.2,412.07Zm-15.65-3.49c3.37.09,2.86,2.32,3,4.36.09,1.54-.81,3.36.77,4.79,2.16-2.93-2-7.75,4.32-9.42A16,16,0,0,0,142.55,408.58Z" transform="translate(175.36 -58.45)"/><path class="cls-2" d="M164.89,171.41c-3.3,0-6.6,0-9.9,0-1.57,0-2.28-1.11-3.15-2q-37.95-40.26-92.75-47.9c-63.23-8.82-127.63,25.08-156.55,82.35A155.17,155.17,0,0,0-114.3,271c-.07,2.91.32,4.32,3.74,4a67.8,67.8,0,0,1,11.75,0c4.81.4,8.46-1.39,10.89-5.31,4.1-6.63,9.82-8.88,17.5-8.24,15.74,1.32,31.53,2.14,47.29,3.14,2,.13,4.09.39,4,2.94s-2.29,2.56-4.24,2.54q-19.07-.15-38.13-.29c-3.83,0-5.4,1.32-5.3,4.52s2,4.36,5.14,4.43c12.7.28,25.4.74,38.1,1.15,1.4.05,2.92-.13,3.89,1.26a3,3,0,0,1,.29,3.06c-.66,1.56-2.06,1.7-3.57,1.73q-19.41.35-38.83.77c-3.44.07-4.82,1.46-4.69,4.72.1,2.71,1.33,4.06,4.22,4.07q18.52,0,37.06.32c2.25,0,5.78-1.15,5.83,2.66.05,3.44-3.34,2.71-5.54,2.83-16.13.91-32.26,1.72-48.4,2.56-5.84.31-10.57-1.93-13.58-6.87-3.19-5.22-7.37-7.72-13.57-7.05a55.34,55.34,0,0,1-10,0c-2.73-.2-3.07.83-2.75,3.24,4.16,30.72,15.76,58.32,36.61,81.26,41.54,45.71,93.34,62.91,153.16,48,58.94-14.74,96-53.82,111.87-112.54,5-18.68,5.59-37.8,2.8-56.93-.47-3.19,1.42-3.86,3.24-5,4.87-3.13,4.88-3.12,5.69,2.61A162.67,162.67,0,0,1,63,434.71c-92.45,13.93-178.37-54.25-185.74-147.38-6.66-84.27,50.25-159.16,133.63-173.42,61.69-10.56,113,10.06,154.27,56.44Z" transform="translate(175.36 -58.45)"/><path class="cls-3" d="M136.17,307.84c-4.33,0-7.95,0-11.57,0-.44,0-1.13-.12-1.28-.4-2-4-4.44-1.57-6.84-.5A20.36,20.36,0,0,1,104,308.31c-12.12-2.42-17.43-16.37-9.2-25.59,3.82-4.28,4.75-7,2.09-12.58-4.62-9.64,1.33-19.57,11-20.5,5.39-.51,10,1,12.85,5.8,3,5,2.74,10.17.2,15.27a11.1,11.1,0,0,1-4.22,4.74c-3.4,1.95-3,3.77-.61,6.34a100.93,100.93,0,0,1,6.28,8,11.42,11.42,0,0,0,2.35-7c.09-2.37.75-3.21,3.28-3.16,6.32.14,6.33,0,5.45,6.37a23.07,23.07,0,0,1-3.59,10.33c-1.07,1.52-.68,2.44.34,3.67C132.14,302.42,133.91,304.87,136.17,307.84Zm-20.48-10.17-10.11-13.19c-3.74,4.41-4.21,9.73-1.36,13.19C106.66,300.64,110.57,300.68,115.69,297.67Zm-10.18-32.79c.29,1.93.61,4.67,2.95,5.82,1.63.79,5.14-4.36,5.07-7.24-.06-2.59-.91-4.77-3.83-5.1C107.37,258.1,105.46,261,105.51,264.88Z" transform="translate(175.36 -58.45)"/><path class="cls-3" d="M47.73,317.16c5.73,0,5.71,0,7.33,5.73,4.54,16.09,9.07,32.18,13.72,48.24.7,2.41,1,3.5-2.32,3.43-8.53-.18-8.69,0-10.6-8.33-.73-3.18-1.84-4.7-5.34-4.19-3.25.46-7.41-1.27-9.63.67-2,1.75-2.22,5.8-2.81,8.92-.46,2.4-1.56,3.15-3.84,2.87-2.78-.35-6.56,1.24-8-.7-1-1.32,1-5,1.74-7.63q6.14-21.74,12.3-43.47C41.8,317.16,41.8,317.16,47.73,317.16Zm.14,18.8-.62.17q-2,7.58-3.93,15.14c-.16.62-.76,1.72.15,1.79a67.31,67.31,0,0,0,8.16.06c.78,0,.53-.89.39-1.44Q50,343.82,47.87,336Z" transform="translate(175.36 -58.45)"/><path class="cls-3" d="M104.51,356.62a13.89,13.89,0,0,0,2.14,0c2.25-.32,3.27.29,3.54,2.88.51,4.76,3,6.89,7.35,7.18,3.17.21,5.93-.47,7.38-3.71a8.28,8.28,0,0,0-1.88-9.47,19.24,19.24,0,0,0-6.22-3.39,50.93,50.93,0,0,1-8.7-4c-6.58-4-9.16-9.18-8.11-16.37.91-6.28,5.77-11.33,12.71-12.83a22.68,22.68,0,0,1,13.64,1,15.34,15.34,0,0,1,8.08,7.19c1.39,2.66,3.19,6.56,1.39,8.27-2.13,2-6.3.62-9.57.57-1.51,0-.91-1.73-1.11-2.63-.78-3.52-2.66-5.77-6.38-6.18-3.16-.34-5.69.69-7,3.73s-1.18,6.08,1.55,8.45a23.71,23.71,0,0,0,7.73,4.31,37.45,37.45,0,0,1,7.69,3.67c6.75,4.28,9.4,10.9,7.49,18.73-1.49,6.14-7.07,10.43-14.52,11.19-5.2.52-10.19-.07-14.81-2.71-5-2.81-7.4-7.09-8-12.71-.26-2.58.57-3.46,3-3.11A17.22,17.22,0,0,0,104.51,356.62Z" transform="translate(175.36 -58.45)"/><path class="cls-3" d="M-33.43,374.32c-4.39.05-8.78,0-13.17.19-1.79.06-2.17-.65-2.16-2.29q.07-26.54,0-53.08c0-1.42.23-2.19,1.91-2.15,6.4.15,12.85-.2,19.21.37,10.36.91,15.82,8.2,14.24,18.15-.64,4-3,6.86-6.33,9.08,7.44,3.26,10.27,9.67,8.26,18.3-1.82,7.81-8.64,12-18.45,11.43l.08,0c-.42-2.3,1.58-1.65,2.58-2a14.91,14.91,0,0,0,10.87-13.89A14.89,14.89,0,0,0-26.95,344c-1-.34-2.74.34-3-1.73s1.08-2.48,2.44-3.27A6.63,6.63,0,0,0-24,332.16a6.83,6.83,0,0,0-4.57-5.85c-2.86-1.14-3.94-.43-4,2.66,0,3.91-.12,7.84,0,11.75.07,2-.4,2.84-2.47,3.38a13.92,13.92,0,0,0-10.18,10c-2.49,8.25,2.1,15.5,11.78,18.79Z" transform="translate(175.36 -58.45)"/><path class="cls-3" d="M-8.51,345.73c0-8.55.08-17.1-.05-25.65,0-2.28.52-3,2.91-3q13.19.22,26.36,0c2.38,0,3,.67,2.93,3-.11,5.79,0,5.79-5.78,5.79-4,0-8.09.17-12.11-.06-2.61-.15-3.27.81-3,3.21.37,3.74-1.58,8.77.8,10.89,2.07,1.85,7,.55,10.66.57,6.28,0,7,1,6,7.32-.26,1.64-1.2,1.47-2.25,1.47-4.28,0-8.55.08-12.82,0-1.81-.05-2.5.38-2.42,2.33.15,3.91.17,7.84,0,11.75-.09,2.14.71,2.56,2.65,2.52,5.11-.13,10.22.05,15.32-.09,2.2-.06,3.1.37,3.05,2.87-.12,5.86,0,5.87-5.67,5.87-8,0-15.91-.09-23.87,0-2.24,0-2.76-.63-2.73-2.8C-8.43,363.07-8.51,354.4-8.51,345.73Z" transform="translate(175.36 -58.45)"/><path class="cls-2" d="M16.6,303.74c-3.38,0-6.45,0-9.52,0-3.48-.06-2-3.44-3.38-5.11-1,0-1,1.05-1.45,1.62a11.05,11.05,0,0,1-16.53,1.15C-20.66,295-18,282.93-9.52,279.83A25.06,25.06,0,0,1,.68,278.7c2.27.13,3.3-.44,3-2.92-.21-1.65-.11-3.34-.89-4.86a4,4,0,0,0-4.08-2.29c-1.74.09-3.24,1-3.38,2.63-.24,2.8-1.88,2.79-3.9,2.64-1.18-.09-2.37-.06-3.56-.08-4.41-.07-4.85-.74-3.19-4.95C-13,263-6,259.52,2,260.37c6.89.74,11.57,4.95,12.54,11.57.76,5.19.22,10.43.29,15.65S14.65,298.27,16.6,303.74ZM3.65,288.8c0-3.76,0-3.76-3.08-3.78-5,0-7.12,1.84-7,6.24.05,2.62.91,4.78,3.92,5C1,296.5,3.64,293.27,3.65,288.8Z" transform="translate(175.36 -58.45)"/><path class="cls-2" d="M63.65,274c-2.45.52-4.72.11-5.49-3.66-.37-1.81-2.45-2.45-4.42-2.16a4.22,4.22,0,0,0-3.64,3,3.74,3.74,0,0,0,1.7,4.64c1.91,1.16,4,2.1,6,3.1s4.34,1.94,6.38,3.12a11.09,11.09,0,0,1,6,10.92c-.31,5-3.15,8.05-7.4,10.05-6.93,3.26-16.2,1.8-20.82-3.29a14.56,14.56,0,0,1-2.56-3.81c-2.08-4.6-1.47-5.51,3.39-5.51,1.19,0,2.38.08,3.56,0,1.54-.13,2.32.25,2.57,2,.42,2.83,2.3,4.32,5.17,4.47,2.15.11,4.13-.32,5-2.55s0-4.25-2.07-5.47a57,57,0,0,0-6.32-3.24,34.51,34.51,0,0,1-7.12-4,10.49,10.49,0,0,1-4.21-10c.65-6.58,6.85-11.2,15.05-11.23,8.46,0,14.76,4.52,15.57,11.13.21,1.74,0,2.77-2.08,2.55C66.65,273.85,65.46,274,63.65,274Z" transform="translate(175.36 -58.45)"/><path class="cls-3" d="M86.23,350.45c0,7-.07,14,0,21,0,2.16-.31,3.09-2.83,3.09-8.48,0-8.48.1-8.48-8.42,0-12.35-.1-24.69.07-37,0-2.75-.76-3.53-3.37-3.27-2.23.22-4.53-.14-6.76.09-2.63.27-3.35-.83-3-3.2a8.65,8.65,0,0,0,0-2.49c-.39-2.48.53-3.17,3.06-3.14,10.44.16,20.89.18,31.33,0,2.84,0,3.88.74,3.45,3.53a10.8,10.8,0,0,0,0,2.84c.23,1.87-.49,2.54-2.38,2.45-2.72-.13-5.46.09-8.18-.08-2.26-.14-3.06.46-3,2.9C86.35,336,86.23,343.21,86.23,350.45Z" transform="translate(175.36 -58.45)"/><path class="cls-2" d="M20.56,282.17c0-3.56-.09-7.13,0-10.69.06-1.78-.37-2.79-2.33-2.47-2.36.39-3.1-.56-3-2.92.16-2.81-.66-6.06,4.1-5,.61.14,1.1-.33,1.13-1.05,0-.48,0-.95,0-1.43.28-8.7.27-8.63,9.07-8.2,1.84.09,2.19.76,2.12,2.33-.09,1.9.14,3.82-.07,5.7-.26,2.28.63,3.09,2.76,2.68,3.36-.64,3.29,1.46,3.15,3.76-.12,2.1.83,4.9-3.09,4.18-2.16-.39-2.88.49-2.83,2.72.15,6.41,0,12.83.08,19.24,0,2.69.54,5.19,4.24,4.52,1.3-.23,1.23.66,1.43,1.47,1.55,6.32.38,7.78-6.12,7.59-6.07-.18-9.88-3.56-10.47-9.92-.37-4.12-.07-8.31-.07-12.46Z" transform="translate(175.36 -58.45)"/><path class="cls-3" d="M6.62,191.24c.39-3-1.64-7.87.77-9.94,2.08-1.78,6.78-.6,10.32-.59,4,0,8.08-.29,12.09.41,9.56,1.65,15.25,9.39,14.12,19-.24,2.1-.8,3.4-3.21,3a10.57,10.57,0,0,0-1.78,0c-2.14,0-4.7.71-6.3-.22-1.91-1.1-.13-3.79-.44-5.81-.87-5.72-8.3-9.94-13.07-7.2-.92.53-.65,1.43-.66,2.23,0,2.85-.1,5.7,0,8.55.08,1.82-.43,2.43-2.36,2.5-9.51.38-9.51.44-9.51-8.86Z" transform="translate(175.36 -58.45)"/><path class="cls-3" d="M-52.15,216.68c5.1,0,9.33.07,13.56,0,1.71,0,2.21.9,2.69,2.21,3.41,9.23-1,18.71-10.41,21.64a24.54,24.54,0,0,1-20.25-2.08c-5.45-3.13-7.75-8-8.11-14.13-.09-1.64.37-2.47,2.16-2.28a20.11,20.11,0,0,0,3.2,0c3.61-.23,6.79-.55,6.93,4.89.09,3.48,3.36,5.4,7.15,5.67,3.45.24,6.4-.51,7.91-4a9,9,0,0,0-2.07-9.8C-50,218.19-50.7,217.75-52.15,216.68Z" transform="translate(175.36 -58.45)"/><path class="cls-3" d="M182.71,216.68c4.93,0,9,.12,13-.05,2.11-.08,2.87.85,3.44,2.68,3.23,10.38-2.19,19.72-12.8,21.82a25,25,0,0,1-17.9-2.62c-5.45-3.14-7.83-8-8.23-14.1-.12-1.88.44-2.64,2.35-2.41a11.73,11.73,0,0,0,2.84,0c4-.51,6.84-.24,7.18,5.09.23,3.65,3.47,5.4,7.61,5.55,3.35.11,6.12-.84,7.44-4.26a8.76,8.76,0,0,0-2.28-9.75C184.74,218.11,184.07,217.68,182.71,216.68Z" transform="translate(175.36 -58.45)"/><path class="cls-3" d="M141,180.69c5.69,0,11.38.07,17.07,0,1.85,0,2.38.53,2.42,2.41.15,6.84.23,6.84-6.45,6.84-7.67,0-7.67,0-7.67,7.78,0,5.43,0,5.43-5.33,5.43-6.38,0-6.38,0-6.38-6.52,0-6.69,0-6.69-6.58-6.69H126.7c-5.77,0-5.63,0-5.82-5.71-.09-2.71.5-3.72,3.44-3.58C129.88,180.88,135.47,180.7,141,180.69Z" transform="translate(175.36 -58.45)"/><path class="cls-3" d="M175.9,203.12c-3.87,0-7.74-.06-11.6,0-1.66,0-2.29-.66-2.59-2.19-1.26-6.23-.26-11.79,4.59-16.26,7.11-6.57,20.69-6.57,27.83,0a15.87,15.87,0,0,1,3.9,5.45c3,6.83,2.08,8.2-5.12,8.29-2.9,0-5.43.49-5.61-4-.13-3.17-2.81-5.07-6.13-5.45-3.09-.36-5.7.47-7.19,3.4s-1.58,5.93.65,8.64a9.2,9.2,0,0,0,1.64,1.3Z" transform="translate(175.36 -58.45)"/><path class="cls-3" d="M-58.89,203.12c-3.79,0-7.58-.12-11.36,0-2,.09-2.67-.83-3-2.57-2-8.94,2.69-17.16,11.5-19.76,6.65-2,13.18-1.59,19.15,2.32,4.59,3,6.74,7.46,7.15,12.87.12,1.6-.16,2.51-2,2.31a18.41,18.41,0,0,0-3.56,0c-3.4.28-6.29.52-6.68-4.44-.26-3.2-3.19-4.76-6.52-5-3-.19-5.4.9-6.72,3.66-1.44,3-1.42,6,.93,8.61a9.27,9.27,0,0,0,1.66,1.2Z" transform="translate(175.36 -58.45)"/><path class="cls-3" d="M-15.16,180.6c5.58,0,11.15.07,16.73,0,2,0,2.94.21,2.92,2.62,0,6.63.11,6.63-6.66,6.63-7.41,0-7.41,0-7.41,7.34,0,6,0,6-5.89,6s-5.9,0-5.9-6c0-7.35,0-7.35-7.37-7.35-6.76,0-7.34-.78-6.36-7.63.26-1.87,1.36-1.58,2.5-1.58C-26.78,180.59-21,180.6-15.16,180.6Z" transform="translate(175.36 -58.45)"/><path class="cls-3" d="M101.91,240.87c-4.75,0-9.5-.09-14.25,0-2,.06-2.64-.61-2.61-2.63q.18-9.61,0-19.23c0-1.91.62-2.36,2.44-2.42,9.36-.35,9.36-.4,9.36,9,0,6,0,6,5.9,6,4.63,0,9.26.06,13.89,0,1.66,0,2.2.46,2.26,2.21.26,7.09.34,7.09-6.66,7.09Z" transform="translate(175.36 -58.45)"/><path class="cls-3" d="M65.86,240.86c-4.75,0-9.5-.07-14.24,0-1.83.05-2.5-.45-2.47-2.38.11-6.52.1-13,0-19.58,0-1.64.36-2.2,2.13-2.3,9.55-.51,9.54-.57,9.54,8.74,0,6.24,0,6.24,6.36,6.24,4.39,0,8.78.06,13.17,0,1.68,0,2.49.21,2.54,2.26.17,7,.27,7-6.72,7Z" transform="translate(175.36 -58.45)"/><path class="cls-3" d="M102,180.59c4.62,0,9.25.14,13.86-.05,2.4-.11,3,.67,2.93,3-.09,6.3,0,6.3-6.29,6.3-4.38,0-8.76.11-13.14-.05-2.09-.07-2.66.65-2.55,2.64.16,2.83,0,5.68.07,8.52.07,1.72-.58,2.15-2.25,2.23-9.54.49-9.53.54-9.53-8.78,0-3.67.12-7.34,0-11-.1-2.14.47-2.92,2.74-2.84C92.52,180.72,97.26,180.59,102,180.59Z" transform="translate(175.36 -58.45)"/><path class="cls-3" d="M66.36,180.6c4.63,0,9.26.1,13.89,0,2.07-.06,2.56.66,2.57,2.64.05,6.62.13,6.62-6.34,6.62-4,0-8.08.15-12.11,0-2.65-.13-4,.41-3.59,3.43.29,2.46,0,5,.09,7.48.08,1.78-.39,2.43-2.34,2.5-9.34.33-9.34.4-9.34-9,0-3.8.09-7.6,0-11.4-.06-1.76.57-2.24,2.25-2.21C56.38,180.66,61.37,180.6,66.36,180.6Z" transform="translate(175.36 -58.45)"/><path class="cls-3" d="M47.47,240.86c-3.74,0-6.71-.23-9.63.07-3.15.32-4.25-1.29-4.71-3.94-.61-3.52-.32-7.07-.43-10.61-.12-3.73-.68-7.29-4.33-9.7,4.09,0,8.17.06,12.25,0,1.74,0,2.15,1.13,2.63,2.36,1.14,2.94,1.13,6,1.09,9.09C44.29,232.37,44.39,236.6,47.47,240.86Z" transform="translate(175.36 -58.45)"/><path class="cls-3" d="M18.46,228.76c0,3.21-.07,6.41,0,9.61.06,1.73-.33,2.47-2.31,2.56-9.57.43-9.56.5-9.56-9.14,0-4,.1-8.07,0-12.1-.08-2.18.32-3.09,2.85-3.09,9,0,9-.12,9,9Z" transform="translate(175.36 -58.45)"/><path class="cls-3" d="M-21.36,228.84c0-3.32.08-6.65,0-10-.06-1.7.48-2.16,2.18-2.24,9.63-.48,9.63-.53,9.63,9,0,4.27-.08,8.54,0,12.81.05,1.82-.48,2.39-2.38,2.46-9.43.34-9.43.4-9.43-8.87Z" transform="translate(175.36 -58.45)"/><path class="cls-3" d="M134.71,228.89c0-3.19.1-6.39,0-9.58-.08-1.88.28-2.65,2.44-2.69,9.3-.17,9.29-.25,9.29,8.94,0,4.26-.11,8.52,0,12.78.08,2.1-.68,2.53-2.64,2.57-9.1.18-9.1.24-9.1-8.82Z" transform="translate(175.36 -58.45)"/><path class="cls-3" d="M41,207.63c-2.7,3-5,4.63-8.65,4.53-7.69-.23-15.39-.09-23.08-.06-1.51,0-2.77.14-2.71-2.1,0-1.85.56-2.42,2.44-2.41C19.38,207.68,29.78,207.63,41,207.63Z" transform="translate(175.36 -58.45)"/><path class="cls-3" d="M100.23,207.63c4.27,0,8.54.07,12.8,0,1.77,0,2.2.61,2.2,2.27s-.42,2.28-2.19,2.27c-8.66-.08-17.31-.07-26,0-1.57,0-2.07-.54-2-2.07s0-2.5,2-2.45C91.46,207.71,95.84,207.63,100.23,207.63Z" transform="translate(175.36 -58.45)"/><path class="cls-3" d="M64.06,212.08c-4.15,0-8.31-.08-12.46,0-1.77,0-2.53-.34-2.49-2.32,0-1.78.65-2.19,2.3-2.18q12.83.09,25.64,0c1.62,0,2.29.35,2.32,2.16s-.7,2.39-2.49,2.34C72.61,212,68.34,212.08,64.06,212.08Z" transform="translate(175.36 -58.45)"/><path class="cls-3" d="M-69.27,207.63c7.28,0,13.87-.13,20.45.06,2.94.08,5.07,2.24,7.35,4.4-5.56,0-11.14-.23-16.69.07C-62.38,212.4-65.79,211.2-69.27,207.63Z" transform="translate(175.36 -58.45)"/><path class="cls-3" d="M194.22,212.08c-7.8,0-14.72.14-21.64-.06-2.67-.08-4.44-2.26-6.31-4.36,6.78,0,13.58-.24,20.34.11C189.2,207.91,191.42,209.87,194.22,212.08Z" transform="translate(175.36 -58.45)"/><path class="cls-3" d="M-29.91,374.32c0,2.48.08,5,0,7.46A5.33,5.33,0,0,1-35.45,387a5.49,5.49,0,0,1-5.2-5.31,5.22,5.22,0,0,1,5.35-5.41c1.61,0,3.12.49,2.6-2l-.06.08h2.93Z" transform="translate(175.36 -58.45)"/><path class="cls-3" d="M-15.46,212.09c-1.3,0-2.6-.1-3.88,0-1.86.18-2.05-.78-2.09-2.32-.05-1.72.55-2.27,2.23-2.19,2.47.12,4.95.11,7.41,0,1.64-.07,2.26.41,2.29,2.16,0,1.9-.61,2.54-2.43,2.35A34.64,34.64,0,0,0-15.46,212.09Z" transform="translate(175.36 -58.45)"/><path class="cls-3" d="M140.59,207.64c1.18,0,2.37.07,3.55,0,1.58-.13,2.35.24,2.35,2.09s-.48,2.54-2.4,2.41c-2.24-.16-4.5-.06-6.75,0-1.47,0-2.71.21-2.73-2.07s1-2.54,2.78-2.4C138.45,207.71,139.52,207.64,140.59,207.64Z" transform="translate(175.36 -58.45)"/><path class="cls-3" d="M158.2,412.07c-1.51,1.61-1.15,4.14-3,5.64-1.59-1.58-1.33-4-2.7-5.74-1.11,1.11.29,2.95-1.17,3.66-.83-.05-.87-.56-.85-1,.07-2.12-.77-5.36,1.49-5.82,2.07-.42,1.86,3,2.76,4.71.15.27.26.55.39.84,2.05-1.12,1.11-6,4.09-4.45,1.78.89,1.17,5,.71,8.22C158.11,416,159.48,413.75,158.2,412.07Z" transform="translate(175.36 -58.45)"/><path class="cls-3" d="M142.55,408.58a16,16,0,0,1,8.08-.27c-6.31,1.67-2.16,6.49-4.32,9.42-1.58-1.43-.68-3.25-.77-4.79C145.41,410.9,145.92,408.67,142.55,408.58Z" transform="translate(175.36 -58.45)"/><path class="cls-3" d="M-33.43,374.32V372.9c1,.12.87.77.67,1.45l.06-.08Z" transform="translate(175.36 -58.45)"/><path class="cls-1" d="M115.69,297.67c-5.12,3-9,3-11.47,0-2.85-3.46-2.38-8.78,1.36-13.19Z" transform="translate(175.36 -58.45)"/><path class="cls-1" d="M105.51,264.88c-.05-3.9,1.86-6.78,4.19-6.52,2.92.33,3.77,2.51,3.83,5.1.07,2.88-3.44,8-5.07,7.24C106.12,269.55,105.8,266.81,105.51,264.88Z" transform="translate(175.36 -58.45)"/><path class="cls-1" d="M47.87,336q2.07,7.86,4.15,15.72c.14.55.39,1.41-.39,1.44a67.31,67.31,0,0,1-8.16-.06c-.91-.07-.31-1.17-.15-1.79q1.95-7.57,3.93-15.14Z" transform="translate(175.36 -58.45)"/><path class="cls-1" d="M-32.76,374.35c.2-.68.33-1.33-.67-1.45-9.68-3.29-14.27-10.54-11.78-18.79A13.92,13.92,0,0,1-35,344.1c2.07-.54,2.54-1.42,2.47-3.38-.16-3.91-.09-7.84,0-11.75,0-3.09,1.12-3.8,4-2.66A6.83,6.83,0,0,1-24,332.16,6.63,6.63,0,0,1-27.53,339c-1.36.79-2.73,1.2-2.44,3.27s2,1.39,3,1.73a14.89,14.89,0,0,1,10.57,14.47A14.91,14.91,0,0,1-27.25,372.4c-1,.3-3-.35-2.58,2Zm11.39-22.06c.08.31.21.77.58.47s0-.57-.33-.74l-.45-.87a10.73,10.73,0,0,0-6.14-4.42c-.88-.26-2.17-1-2.25.93-.06,1.26-.05,2.36,1.77,2.22,2.19-.16,4.08.89,6,1.81Zm-16.79,15.39,1,.7a.8.8,0,0,0-.41-1.3,24,24,0,0,1-1.6-4.3c-.85-4.95.87-8.92,5.24-11.48,2-1.15,1.75-3,1.15-4.28s-2.13-.16-3.09.26C-44.29,350.89-45.45,361.58-38.16,367.68Zm8.23-7.21c0,1.89.13,3.8,0,5.67-.18,2.16.69,2.69,2.67,2.32a8,8,0,0,0,6.55-7.38,7.87,7.87,0,0,0-5.43-7.87c-2.35-.73-4.24-.81-3.78,2.65A37.28,37.28,0,0,1-29.93,360.47Zm-2.81-6.2c-5,3.93-5,9.23,0,12.7Zm3-25.49v8.3C-25.53,334.6-25.51,331.41-29.76,328.78Z" transform="translate(175.36 -58.45)"/><path class="cls-1" d="M3.65,288.8c0,4.47-2.62,7.7-6.21,7.45-3-.21-3.87-2.37-3.92-5-.07-4.4,2.06-6.26,7.05-6.24C3.65,285,3.65,285,3.65,288.8Z" transform="translate(175.36 -58.45)"/><path class="cls-3" d="M-29.93,360.47a37.28,37.28,0,0,0,0-4.61c-.46-3.46,1.43-3.38,3.78-2.65a7.87,7.87,0,0,1,5.43,7.87,8,8,0,0,1-6.55,7.38c-2,.37-2.85-.16-2.67-2.32C-29.8,364.27-29.93,362.36-29.93,360.47Z" transform="translate(175.36 -58.45)"/><path class="cls-3" d="M-38.16,367.68c-7.29-6.1-6.13-16.79,2.26-20.4,1-.42,2.45-1.66,3.09-.26s.82,3.13-1.15,4.28c-4.37,2.56-6.09,6.53-5.24,11.48a24,24,0,0,0,1.6,4.3Z" transform="translate(175.36 -58.45)"/><path class="cls-3" d="M-32.74,354.27V367C-37.7,363.5-37.77,358.2-32.74,354.27Z" transform="translate(175.36 -58.45)"/><path class="cls-3" d="M-29.76,328.78c4.25,2.63,4.23,5.82,0,8.3Z" transform="translate(175.36 -58.45)"/><path class="cls-3" d="M-22.21,351.69c-1.9-.92-3.79-2-6-1.81-1.82.14-1.83-1-1.77-2.22.08-1.93,1.37-1.19,2.25-.93a10.73,10.73,0,0,1,6.14,4.42Z" transform="translate(175.36 -58.45)"/><path class="cls-3" d="M-37.6,367.08a.8.8,0,0,1,.41,1.3l-1-.7Z" transform="translate(175.36 -58.45)"/><path class="cls-3" d="M-21.37,352.29l-.84-.6.64-.54.45.87Z" transform="translate(175.36 -58.45)"/><path class="cls-3" d="M-21.12,352c.31.17.67.47.33.74s-.5-.16-.58-.47Z" transform="translate(175.36 -58.45)"/></svg>