<svg xmlns="http://www.w3.org/2000/svg" viewBox="0 0 527 526.94"><defs><style>.a{fill:#f5f7f6;stroke:#f5f7f6;stroke-miterlimit:10;stroke-width:15px;}</style></defs><title>next-page-white2</title><path class="a" d="M497,170.12A255.86,255.86,0,0,0,24.83,146.37,254.19,254.19,0,0,0,15,342a10.41,10.41,0,0,0,19.62-7A235,235,0,0,1,356.74,43.68a235,235,0,1,1-221.3,414.13,10.41,10.41,0,1,0-10.67,17.88A255.87,255.87,0,0,0,497,170.12Z" transform="translate(7.5 7.47)"/><path class="a" d="M366.55,256a10.41,10.41,0,0,0-10.41-10.41H96.79a10.42,10.42,0,1,0,0,20.83H356.14A10.41,10.41,0,0,0,366.55,256Z" transform="translate(7.5 7.47)"/><path class="a" d="M290.57,365a10.41,10.41,0,1,0,14.72,14.72L421.58,263.4a10.42,10.42,0,0,0,0-14.73h0L305.29,132.38a10.42,10.42,0,0,0-14.72,0h0a10.42,10.42,0,0,0,0,14.73h0L399.49,256,290.57,365Z" transform="translate(7.5 7.47)"/></svg>