<svg id="Layer_1" data-name="Layer 1" xmlns="http://www.w3.org/2000/svg" viewBox="0 0 325.29 325.3"><defs><style>.cls-1{fill:#f5f7f6;}.cls-2{fill:#bf00ff;}.cls-3{fill:none;}</style></defs><title>seb_streets_white</title><path class="cls-1" d="M-240.65,247.05c13.71,70.13-23.54,149.72-101.06,180.06-77.16,30.21-166.4-3.76-203.42-77.21-38.6-76.62-13.53-167.4,59.37-212.81,69-43,159.94-27.62,211.43,36-6.06-.33-11,.75-16.25-4.41-42.42-42-93.32-56.72-150.74-40.86-57.11,15.77-93,54.4-108.35,111.72-2.16,8.09-2.9,16.59-3.93,25-.48,3.83-.08,7.77-.08,12,6.16,0,12.48.54,18.62-.25,2.72-.35,5.79-2.91,7.48-5.32,4.27-6.13,9.63-8.49,17-7.88,15.74,1.28,31.52,2.12,47.29,3.14.47,0,1.1-.15,1.4.09,1.07.88,2,1.89,3,2.85-1.08.85-2.14,2.4-3.24,2.43-7.36.19-14.73.06-22.1,0-5.82,0-11.64-.15-17.45-.18-3.5,0-5.07,1.43-4.95,4.52s1.66,4.35,4.78,4.42c12,.25,24,.68,36,1,1.07,0,2.14.14,3.21.15,2.19,0,3.81.72,3.66,3.25-.13,2.35-1.79,2.73-3.77,2.77-12.94.22-25.89.56-38.83.72-3.16,0-4.66,1.35-4.69,4.42,0,2.8,1.07,4.41,4.22,4.41q18.54,0,37.06.32c2.25,0,5.78-1.14,5.83,2.67,0,3.43-3.35,2.7-5.54,2.82-16.13.91-32.27,1.73-48.4,2.57-5.84.3-10.57-1.93-13.59-6.88-3.18-5.22-7.36-7.66-13.57-7.06-4.11.4-8.28.08-12.93.08.23,2,.39,3.82.65,5.63C-542.09,369.7-481,425.32-409,428.88A154.07,154.07,0,0,0-251,310.81a150.93,150.93,0,0,0,2.59-56.26c-.29-2.08.06-3.33,2-4.3s3.42-2.12,5.14-3.18C-241.16,247-240.88,247.06-240.65,247.05Z" transform="translate(563.15 -112.82)"/><path class="cls-1" d="M-340.59,279.43c-1.29-5.17-3.18-9.75-3.42-14.41-.37-7,3.54-11.64,9.6-13.23,6.49-1.7,12.1.21,15.37,5.23a15.23,15.23,0,0,1-1.39,17.6,74.1,74.1,0,0,1-5.83,5.36c2.77,3.59,5.5,7.14,8.25,10.68a9.4,9.4,0,0,0,1.31,1c.81-3.48,1.55-6.63,2.34-10h8.45a30.48,30.48,0,0,1-5,18.25l7.54,9.94c-5.77-1.45-11.41,2.3-15.6-3.52-5.76,3.73-12.16,5.46-18.79,3.08a18.76,18.76,0,0,1-8.13-5.89C-351.35,296.39-349.19,288.39-340.59,279.43Zm16.5,19.9c-3.37-4.4-6.72-8.77-10.13-13.2-3.73,4.53-4.16,9.81-1.3,13.24C-333.06,302.33-329.09,302.35-324.09,299.33Zm-7.61-26.69c4.56-2.76,6.31-5.34,5.24-8.77a5.92,5.92,0,0,0-3.55-3.62c-1-.22-3,1.59-3.67,2.94C-335.23,266.53-333.78,269.6-331.7,272.64Z" transform="translate(563.15 -112.82)"/><path class="cls-1" d="M-370.12,376h-11.66l-3.33-12.24c-4.15,0-8.4-.1-12.63.11-.74,0-1.78,1.27-2.06,2.16-1,3.26-1.8,6.6-2.69,10h-11.63l4.13-14.64c3.7-13.12,7.48-26.22,11-39.38.7-2.57,1.8-3.44,4.38-3.22s5.43.05,8.25.05Zm-17.27-21.23c-1.55-5.89-3-11.52-4.52-17.16l-.61.13c-1.46,5.64-2.91,11.27-4.4,17Z" transform="translate(563.15 -112.82)"/><path class="cls-1" d="M-340.57,358.48h10.46c.16.95.31,2,.49,3,.85,4.58,3.21,6.7,7.67,6.93,3.9.19,6.53-1.44,7.49-4.66a8,8,0,0,0-4-9.72c-4.27-2.3-8.84-4-13.14-6.27-5.66-2.94-8.55-7.67-8.37-14.17a14.73,14.73,0,0,1,6.64-12.35c6.13-4.25,16.42-4.39,22.65-.25,5.07,3.36,7.31,8.18,7.13,14.45H-314.1c-.26-1.11-.47-2.48-.89-3.79a6.67,6.67,0,0,0-6.64-4.94c-3.07-.13-5.37,1.14-6.45,4-1.18,3.13-1.05,6.25,1.9,8.34a58.92,58.92,0,0,0,7.42,4.14c2.74,1.41,5.68,2.47,8.27,4.1,6.12,3.85,8.55,10,7.19,17.21-1.32,7-6,10.57-12.55,11.95a23.7,23.7,0,0,1-16.3-2C-338.4,371.22-341.19,365.94-340.57,358.48Z" transform="translate(563.15 -112.82)"/><path class="cls-1" d="M-473.21,376h-15.1V319.22c7.58,0,15.17-.49,22.66.16,5.87.51,10.58,3.86,12.09,10,1.64,6.72.55,12.76-5.93,16.85,6.53,2.87,9.1,7.19,8.76,14.42-.35,7.49-3.87,12.55-10.54,14.4-2.68.75-5.6.64-8.41.92l.08,0c.86-.66,1.61-1.64,2.58-1.94a15,15,0,0,0,10.87-13.89,14.69,14.69,0,0,0-10.59-14.42c-1-.3-2-.58-4.07-1.2a40.78,40.78,0,0,0,3.2-3.65c1.38-2.06,3.59-4.25,3.57-6.37s-1.94-4.77-3.79-6.16c-2.85-2.14-4.53-1-4.54,2.61,0,4.72,0,9.44,0,14.05-6.63,1.75-10.26,4.61-12.15,9.39-3.42,8.62,1.12,16.68,11.32,20.13Z" transform="translate(563.15 -112.82)"/><path class="cls-1" d="M-448.1,319h31.67v8.46h-20.44V342h17v8.78h-17v16.62h20.55V376H-448.1Z" transform="translate(563.15 -112.82)"/><path class="cls-1" d="M-436.35,279.91c.55-6.17-.54-9.08-3.66-9.53-3.71-.54-4.59,2.06-5.06,4.92h-11a37.38,37.38,0,0,1,.89-4.42c2.06-6,9-9.54,17-8.87,6.9.58,12,4.75,12.77,11.26.59,5.16.24,10.43.45,15.64.21,5.42.59,10.83.91,16.51-2.53,0-5.59,0-8.66,0-3.48-.07-2-3.45-3.52-5.27-.46.61-.9,1.18-1.33,1.77a11.06,11.06,0,0,1-16.77.9c-6.3-6.83-3.2-19,5.73-21.43C-444.77,280.32-440.64,280.39-436.35,279.91Zm.71,6.84c-2.66,0-4.32-.09-6,0-2.86.19-4.11,2.12-4.49,4.68s-.37,5.39,2.36,5.95c1.89.39,5.18-.57,6.07-2C-436.24,293.05-436.27,289.82-435.64,286.75Z" transform="translate(563.15 -112.82)"/><path class="cls-1" d="M-369.85,275.52h-10.47c-.33-1.07-.36-2.49-1.08-3.18-1.18-1.12-2.87-2.47-4.25-2.38a5.18,5.18,0,0,0-3.84,2.89c-.39,1.26.5,3.52,1.59,4.5,1.61,1.45,3.89,2.18,5.9,3.18s4.34,1.94,6.38,3.12a11.09,11.09,0,0,1,6,10.92c-.31,4.94-3.14,8.06-7.39,10.05-7.24,3.4-16.83,1.83-21.24-3.85-1.76-2.27-2.56-5.28-4.08-8.57h10.94c.63,3.22,1.74,6.57,6,6.15,1.63-.16,4.09-1.3,4.44-2.5.44-1.47-.47-3.93-1.65-5.13-1.51-1.52-3.86-2.21-5.85-3.25a70.13,70.13,0,0,1-6.61-3.45c-7.18-4.76-7.33-14-.42-19.1,5.6-4.15,15.67-4,21.08.39A11.54,11.54,0,0,1-369.85,275.52Z" transform="translate(563.15 -112.82)"/><path class="cls-1" d="M-364.75,327.55H-377.6V319h37.37v8.46h-13.15v48.4h-11.37Z" transform="translate(563.15 -112.82)"/><path class="cls-1" d="M-424.23,262.94l5-.35V252.25h11.07v10.32l5.83.34v7.52l-5.63.49c0,7.73-.08,15.3,0,22.88.05,3.39,2.4,3.94,5.39,3.27.3,2.73.57,5.19.83,7.6-8.2,4.54-16.6.1-17.33-9.16-.32-4-.15-8.07-.17-12.11s0-8.07,0-12.49l-5-.4Z" transform="translate(563.15 -112.82)"/><path class="cls-2" d="M-432.86,182.51c7.07,0,14-.44,20.8.09,12,1,18.21,9.85,15.59,22h-11.38c.35-4,1.31-8.81-2.64-11.25-2.85-1.76-6.83-1.68-10.82-2.54v13.86h-11.55Z" transform="translate(563.15 -112.82)"/><path class="cls-2" d="M-514.22,223.84h11.1c.49,5.4,1.81,10.33,8.81,10.44,3.42.05,6.08-1,7.34-4.38,1.56-4.16.11-7.85-4.93-11.49,5.35,0,10-.08,14.58.09.57,0,1.3,1.23,1.6,2,3.5,9.18-1,18.67-10.35,21.64a24.58,24.58,0,0,1-18.68-1.24C-511.64,237.58-514.74,232-514.22,223.84Z" transform="translate(563.15 -112.82)"/><path class="cls-2" d="M-279.51,223.82h11c2.13,8.49,3.64,10.28,8.81,10.49,3.35.13,6.13-.78,7.49-4.19,1.65-4.17.29-7.87-4.71-11.74,5.12,0,9.64-.09,14.16.1.67,0,1.58,1.27,1.89,2.13,3.7,10-1.75,19.9-12.19,22.11-6.5,1.38-12.74.78-18.57-2.69C-277.67,236.4-279.69,230.83-279.51,223.82Z" transform="translate(563.15 -112.82)"/><path class="cls-2" d="M-305.15,204.57V191.63h-13.46v-9.26h39.18v9.09h-13.76v13.11Z" transform="translate(563.15 -112.82)"/><path class="cls-2" d="M-262.9,204.8c-4.81,0-8.67.13-12.51-.1a3.48,3.48,0,0,1-2.53-2c-1.53-6.32-.34-12,4.68-16.5,5.67-5.08,16.05-6.31,23.46-2.64,6.6,3.28,9.52,8.82,9.43,16.31h-11.28c-.55-4.25-1.48-8.47-6.9-9.16-3.07-.39-5.73.41-7.21,3.34C-267.74,198-267.13,201.51-262.9,204.8Z" transform="translate(563.15 -112.82)"/><path class="cls-2" d="M-475.52,199.82h-11c-.5-4.34-1.51-8.36-6.69-9.14-3.38-.5-6.11.53-7.67,3.78-1.66,3.46-.91,6.44,2.9,10.33-4.63,0-8.81.1-13-.09a2.84,2.84,0,0,1-1.89-2c-.25-2.81-.62-5.73-.11-8.46,1.65-8.75,11.47-14.17,22.17-12.55C-480.74,183.23-474.74,190.28-475.52,199.82Z" transform="translate(563.15 -112.82)"/><path class="cls-2" d="M-461.14,204.61V191.55h-13.5v-9.11h39.07v9H-449.3v13.13Z" transform="translate(563.15 -112.82)"/><path class="cls-2" d="M-321.09,242.36H-354.5V218.59H-343v14.6h21.92Z" transform="translate(563.15 -112.82)"/><path class="cls-2" d="M-390.42,218.51H-379v14.66h21.89v9.08h-33.3Z" transform="translate(563.15 -112.82)"/><path class="cls-2" d="M-342.9,191.54v13.07h-11.5V182.55h33.19v9Z" transform="translate(563.15 -112.82)"/><path class="cls-2" d="M-357.24,191.47h-21.6V204.6h-11.49V182.51h33.09Z" transform="translate(563.15 -112.82)"/><path class="cls-2" d="M-412.17,218.36c4.79,0,8.78-.14,12.76.09a3.64,3.64,0,0,1,2.68,2,66.2,66.2,0,0,1,1.29,8.33c.57,4.46,1.09,8.92,1.67,13.72-2.82,0-6.45.2-10-.13-.95-.09-2.33-1.74-2.49-2.83A84.54,84.54,0,0,1-407,229C-407.11,224.91-407.61,221.07-412.17,218.36Z" transform="translate(563.15 -112.82)"/><path class="cls-2" d="M-433,242.24V218.58h11.48v23.66Z" transform="translate(563.15 -112.82)"/><path class="cls-2" d="M-449.53,218.57v23.81h-11.34V218.57Z" transform="translate(563.15 -112.82)"/><path class="cls-2" d="M-293.54,242.35h-11.28V218.57h11.28Z" transform="translate(563.15 -112.82)"/><path class="cls-2" d="M-433,213.77v-4.26h33.49l.42.79c-2,1.16-4,3.23-6.09,3.32C-414.37,214-423.6,213.77-433,213.77Z" transform="translate(563.15 -112.82)"/><path class="cls-2" d="M-324.68,209.49v4h-29.85v-4Z" transform="translate(563.15 -112.82)"/><path class="cls-2" d="M-360.63,209.51v4.12h-29.8v-4.12Z" transform="translate(563.15 -112.82)"/><path class="cls-2" d="M-481.43,213.76c-6.5,0-13,.31-19.49-.14-2.67-.19-5.23-2-7.84-3.1l.33-1.16c6.9,0,13.82-.3,20.69.16,2.33.16,4.51,2.26,6.76,3.48Z" transform="translate(563.15 -112.82)"/><path class="cls-2" d="M-273.31,209.3c6.25,0,12.52-.34,18.73.16,2.89.23,5.66,2.08,8.48,3.2l-.33,1.1c-6.92,0-13.86.28-20.76-.16-2.27-.15-4.42-2.17-6.62-3.33Z" transform="translate(563.15 -112.82)"/><path class="cls-1" d="M-469.68,376c0,2.25,0,4.5,0,6.75,0,3.63-2.34,6.06-5.55,5.93a5.48,5.48,0,0,1-5.2-5.67c.14-3.21,2.72-5.23,6.4-5,.44,0,.89.08,1.56.15,0-.83,0-1.52,0-2.21l-.06.07h2.93Z" transform="translate(563.15 -112.82)"/><path class="cls-2" d="M-460.9,209.47h11.38v4.07H-460.9Z" transform="translate(563.15 -112.82)"/><path class="cls-2" d="M-293.53,213.64H-304.9v-4.11h11.37Z" transform="translate(563.15 -112.82)"/><path class="cls-1" d="M-473.21,376v-1.43l.68,1.45.06-.07Z" transform="translate(563.15 -112.82)"/><path class="cls-3" d="M-387.39,354.78h-9.53c1.49-5.76,2.94-11.39,4.4-17l.61-.13C-390.42,343.26-388.94,348.89-387.39,354.78Z" transform="translate(563.15 -112.82)"/><path class="cls-3" d="M-472.53,376l-.68-1.45c-10.2-3.45-14.74-11.51-11.32-20.13,1.89-4.78,5.52-7.64,12.15-9.39,0-4.61,0-9.33,0-14.05,0-3.57,1.69-4.75,4.54-2.61,1.85,1.39,3.77,4.05,3.79,6.16s-2.19,4.31-3.57,6.37a40.78,40.78,0,0,1-3.2,3.65c2.11.62,3.1.9,4.07,1.2a14.69,14.69,0,0,1,10.59,14.42A15,15,0,0,1-467,374.08c-1,.3-1.72,1.28-2.58,1.94Zm11.34-22,.57.58-.21-.95-.47-.81a10.38,10.38,0,0,0-8.25-4.7v2.75l7.54,2.52Zm-16.74,15.35,1,.69-.41-1.29c-3-6.59-2.25-11.85,2.76-15.18,2.2-1.47,2.74-2.95,2-5.25a11,11,0,0,0-9.69,8.09C-483.61,361.59-482.38,366.06-477.93,369.36Zm8.33.77c3.88.31,6.58-1.13,8.22-4.23a7.3,7.3,0,0,0-.79-8.34,7.33,7.33,0,0,0-7.43-2.88Zm-2.88-14.4c-5.1,4.49-4.91,9.94,0,12.81Zm2.9-17.08,1,.44c.76-1.51,2.13-3,2.11-4.53s-1.44-2.93-2.25-4.4l-.84.51Z" transform="translate(563.15 -112.82)"/><path class="cls-1" d="M-469.6,370.13V354.68a7.33,7.33,0,0,1,7.43,2.88,7.3,7.3,0,0,1,.79,8.34C-463,369-465.72,370.44-469.6,370.13Z" transform="translate(563.15 -112.82)"/><path class="cls-1" d="M-477.93,369.36c-4.45-3.3-5.68-7.77-4.37-12.94a11,11,0,0,1,9.69-8.09c.74,2.3.2,3.78-2,5.25-5,3.33-5.79,8.59-2.76,15.18Z" transform="translate(563.15 -112.82)"/><path class="cls-1" d="M-472.48,355.73v12.81C-477.39,365.67-477.58,360.22-472.48,355.73Z" transform="translate(563.15 -112.82)"/><path class="cls-1" d="M-469.58,338.65v-8l.84-.51c.81,1.47,2.23,2.92,2.25,4.4s-1.35,3-2.11,4.53Z" transform="translate(563.15 -112.82)"/><path class="cls-1" d="M-462,353.4l-7.54-2.52v-2.75a10.38,10.38,0,0,1,8.25,4.7Z" transform="translate(563.15 -112.82)"/><path class="cls-1" d="M-477.37,368.76l.41,1.29-1-.69Z" transform="translate(563.15 -112.82)"/><path class="cls-1" d="M-461.19,354l-.82-.61.71-.57c.15.27.31.54.47.81Z" transform="translate(563.15 -112.82)"/><path class="cls-1" d="M-460.83,353.64l.21.95-.57-.58Z" transform="translate(563.15 -112.82)"/></svg>