<?xml version="1.0"?>
<svg xmlns="http://www.w3.org/2000/svg" xmlns:xlink="http://www.w3.org/1999/xlink" version="1.1" id="Capa_1" x="0px" y="0px" viewBox="0 0 45.173 45.173" style="enable-background:new 0 0 45.173 45.173;" xml:space="preserve" width="512px" height="512px"><g><g>
	<g>
		<g>
			<path d="M17.386,23.907c2.664,0.329,5.148,1.178,7.451,2.242c1.117,0.522,2.313,1.206,3.25,1.74     c0.938,0.553,1.891,1.052,2.854,1.538l-5.838-11.558l-1.233-2.168l-4.357-7.633c-0.615-1.077-1.984-1.452-3.062-0.839     c-1.081,0.618-1.453,1.987-0.837,3.064l4.818,8.448l-1.233,1.094l-7.365,4.2l-0.17,0.095     C13.561,23.731,15.52,23.672,17.386,23.907z" data-original="#010002" className="active-path" data-old_color="#4a4a4a" fill="#4a4a4a"/>
			<path d="M35.669,23.437c2.326-1.327,3.135-4.291,1.811-6.615c-1.326-2.32-4.287-3.133-6.612-1.806     c-2.322,1.327-3.14,4.292-1.812,6.611C30.38,23.956,33.349,24.764,35.669,23.437z" data-original="#010002" className="active-path" data-old_color="#4a4a4a" fill="#4a4a4a"/>
			<path d="M44.853,27.059c-0.688,2.283-1.774,4.403-3.321,5.498c-1.505,1.096-3.222,1.164-5.111,0.784     c-1.885-0.396-3.84-1.202-5.754-2.167c-0.969-0.489-1.922-0.989-2.862-1.545c-0.937-0.534-2.136-1.217-3.253-1.739     c-2.301-1.063-4.787-1.914-7.453-2.243c-2.645-0.332-5.491-0.113-8.06,0.907c-2.575,1.003-4.757,2.764-6.267,4.836     C1.287,33.486,0.258,35.808,0,38.238c2.887-3.822,6.569-6.563,10.391-7.205c3.81-0.699,7.776,0.449,11.622,2.258     c1.002,0.455,1.846,0.914,2.95,1.506c1.111,0.559,2.246,1.104,3.414,1.559c2.346,0.904,4.869,1.646,7.648,1.665     c1.381,0.004,2.846-0.188,4.229-0.761c1.393-0.56,2.639-1.548,3.449-2.731C45.287,32.097,45.451,29.397,44.853,27.059z" data-original="#010002" className="active-path" data-old_color="#4a4a4a" fill="#4a4a4a"/>
		</g>
	</g>
</g></g> </svg>
